<svg width="118" height="118" viewBox="0 0 118 118" fill="none" xmlns="http://www.w3.org/2000/svg">
<circle cx="59" cy="59" r="59" fill="#C9CBF2"/>
<path d="M49.9055 39.8571C49.6142 39.6501 49.2779 39.4941 48.9159 39.3981C48.5538 39.3022 48.1731 39.268 47.7955 39.2977C47.418 39.3274 47.051 39.4203 46.7156 39.5711C46.3803 39.722 46.0831 39.9277 45.8411 40.1767L31.4282 54.9267C31.0042 55.3665 30.7725 55.9183 30.7725 56.4877C30.7725 57.0571 31.0042 57.6089 31.4282 58.0487L45.351 72.7987C45.6223 73.084 45.9651 73.3137 46.3542 73.4711C46.7433 73.6285 47.1688 73.7096 47.5994 73.7083C48.1449 73.7099 48.6797 73.5795 49.1417 73.3321C49.6038 73.0848 49.974 72.7308 50.2095 72.3112C50.4449 71.8915 50.5359 71.4235 50.4719 70.9615C50.4079 70.4995 50.1915 70.0625 49.8478 69.7013L37.3663 56.5L50.2802 43.3233C50.5229 43.0749 50.7058 42.7881 50.8184 42.4793C50.9309 42.1706 50.9709 41.8459 50.9361 41.5239C50.9013 41.2019 50.7924 40.889 50.6155 40.6029C50.4387 40.3169 50.1974 40.0635 49.9055 39.8571Z" fill="#231F20"/>
<path d="M87.7825 54.9512L74.0039 40.2012C73.766 39.9487 73.4719 39.7388 73.1386 39.5835C72.8053 39.4282 72.4392 39.3306 72.0615 39.2963C71.6838 39.262 71.3019 39.2918 70.9377 39.3838C70.5736 39.4758 70.2343 39.6283 69.9394 39.8325C69.6433 40.0354 69.3971 40.2861 69.215 40.5704C69.0329 40.8547 68.9185 41.1669 68.8783 41.489C68.8381 41.8111 68.873 42.1368 68.9809 42.4474C69.0888 42.758 69.2676 43.0473 69.507 43.2987L81.8156 56.5L68.9017 69.7012C68.659 69.9497 68.4761 70.2365 68.3636 70.5452C68.251 70.854 68.211 71.1787 68.2458 71.5007C68.2806 71.8227 68.3896 72.1356 68.5664 72.4216C68.7433 72.7077 68.9846 72.9611 69.2764 73.1675C69.799 73.5252 70.4513 73.7164 71.1213 73.7083C71.5448 73.7089 71.9632 73.6299 72.3468 73.477C72.7304 73.324 73.0698 73.1008 73.3409 72.8233L87.7537 58.0733C88.1818 57.6363 88.4187 57.0861 88.4239 56.5167C88.4292 55.9473 88.2025 55.394 87.7825 54.9512Z" fill="#231F20"/>
</svg>
