<svg width="26" height="25" viewBox="0 0 26 25" fill="none" xmlns="http://www.w3.org/2000/svg">
<path d="M5.43233e-08 12.5128C0.000231587 10.0734 0.741144 7.68718 2.13161 5.64774C3.52208 3.6083 5.50146 2.00454 7.82631 1.03371C10.1512 0.0628744 12.7201 -0.232697 15.2172 0.183348C17.7142 0.599394 20.0305 1.70891 21.8811 3.37544C23.7318 5.04197 25.036 7.19283 25.6335 9.56349C26.231 11.9341 26.0957 14.4212 25.2441 16.7188C24.3926 19.0164 22.862 21.0243 20.8406 22.4956C18.8192 23.9669 16.3952 24.8374 13.8667 25V15.0156H17.3333V13.347H13.8667V10.8443C13.8667 10.1805 14.1406 9.54389 14.6282 9.07452C15.1158 8.60516 15.7771 8.34147 16.4667 8.34147H17.3333V6.67295H16.4667C15.3174 6.67295 14.2152 7.11243 13.4025 7.8947C12.5899 8.67697 12.1333 9.73796 12.1333 10.8443V13.347H8.66667V15.0156H12.1333V25C8.84268 24.7884 5.75858 23.3807 3.50574 21.0621C1.25289 18.7436 -0.000301261 15.6875 5.43233e-08 12.5128Z" fill="white"/>
</svg>
