<svg width="27" height="27" viewBox="0 0 27 27" fill="none" xmlns="http://www.w3.org/2000/svg">
<path d="M15.066 11.7403L16.6624 10.1451C16.0061 9.55861 15.1922 9.17746 14.3215 9.04882C13.4508 8.92017 12.5615 9.04969 11.7637 9.42133C10.9659 9.79297 10.2945 10.3904 9.83279 11.1397C9.37105 11.889 9.13919 12.7573 9.16589 13.637C9.1926 14.5168 9.4767 15.3694 9.98304 16.0893C10.4894 16.8092 11.1957 17.3648 12.0146 17.6874C12.8335 18.01 13.7291 18.0853 14.5903 17.9041C15.4516 17.7229 16.2409 17.293 16.8604 16.6678L15.3832 15.1907H15.147C14.8253 15.4731 14.4298 15.6579 14.0068 15.7234C13.5838 15.7889 13.151 15.7324 12.759 15.5605C12.367 15.3886 12.0321 15.1085 11.7938 14.7529C11.5554 14.3974 11.4234 13.9813 11.4132 13.5534C11.403 13.1255 11.5151 12.7036 11.7363 12.3371C11.9575 11.9707 12.2786 11.675 12.6619 11.4846C13.0453 11.2943 13.475 11.2172 13.9007 11.2625C14.3263 11.3078 14.7301 11.4736 15.0649 11.7403H15.066Z" fill="white"/>
<path fill-rule="evenodd" clip-rule="evenodd" d="M13.5 3.375C14.8296 3.375 16.1462 3.63689 17.3747 4.14572C18.6031 4.65455 19.7193 5.40035 20.6595 6.34054C21.5996 7.28074 22.3455 8.39691 22.8543 9.62533C23.3631 10.8538 23.625 12.1704 23.625 13.5C23.625 14.8296 23.3631 16.1462 22.8543 17.3747C22.3455 18.6031 21.5996 19.7193 20.6595 20.6595C19.7193 21.5996 18.6031 22.3455 17.3747 22.8543C16.1462 23.3631 14.8296 23.625 13.5 23.625C10.8147 23.625 8.23935 22.5583 6.34054 20.6595C4.44174 18.7606 3.375 16.1853 3.375 13.5C3.375 10.8147 4.44174 8.23935 6.34054 6.34054C8.23935 4.44174 10.8147 3.375 13.5 3.375ZM13.5 5.625C14.5342 5.625 15.5582 5.82869 16.5136 6.22445C17.4691 6.6202 18.3372 7.20027 19.0685 7.93153C19.7997 8.6628 20.3798 9.53093 20.7756 10.4864C21.1713 11.4418 21.375 12.4658 21.375 13.5C21.375 14.5342 21.1713 15.5582 20.7756 16.5136C20.3798 17.4691 19.7997 18.3372 19.0685 19.0685C18.3372 19.7997 17.4691 20.3798 16.5136 20.7756C15.5582 21.1713 14.5342 21.375 13.5 21.375C11.4114 21.375 9.40838 20.5453 7.93153 19.0685C6.45468 17.5916 5.625 15.5886 5.625 13.5C5.625 11.4114 6.45468 9.40838 7.93153 7.93153C9.40838 6.45469 11.4114 5.625 13.5 5.625Z" fill="white"/>
</svg>
