<svg width="1159" height="74" viewBox="0 0 1159 74" fill="none" xmlns="http://www.w3.org/2000/svg">
<path d="M14.3539 49.1672C10.9061 49.3687 7.77719 50.5625 6.00176 54.8156C5.79981 55.3008 5.31427 55.5953 4.74795 55.5953C3.79321 55.5953 0.841312 53.4336 0 52.9117C0.000859358 59.3453 3.2604 65 11.0006 65C17.5197 65 22.0004 61.5805 22.0004 55.6102C22.0004 55.3672 21.9446 55.1352 21.9171 54.8969L14.3539 49.1672ZM39.35 25C38.0472 25 36.8261 25.5242 35.8945 26.2852C18.3284 40.5508 16.5005 40.8859 16.5005 45.0852C16.5005 46.1555 16.7798 47.1758 17.2508 48.1086L22.7352 52.2633C23.3548 52.4039 23.9933 52.5 24.6593 52.5C29.9968 52.5 33.0905 48.9477 42.8055 32.4641C43.4397 31.343 44 30.132 44 28.8711C44 26.6125 41.7657 25 39.35 25Z" fill="black"/>
<path d="M585.85 0H562.915C560.201 0 558 2.1416 558 4.78125V46.2188C558 48.8584 560.201 51 562.915 51H585.85C588.563 51 590.764 48.8584 590.764 46.2188V4.78125C590.764 2.1416 588.563 0 585.85 0ZM574.382 47.8125C572.57 47.8125 571.106 46.3881 571.106 44.625C571.106 42.8619 572.57 41.4375 574.382 41.4375C576.194 41.4375 577.659 42.8619 577.659 44.625C577.659 46.3881 576.194 47.8125 574.382 47.8125ZM585.85 37.0547C585.85 37.7121 585.297 38.25 584.621 38.25H564.143C563.468 38.25 562.915 37.7121 562.915 37.0547V5.97656C562.915 5.31914 563.468 4.78125 564.143 4.78125H584.621C585.297 4.78125 585.85 5.31914 585.85 5.97656V37.0547Z" fill="black"/>
<path d="M1113.91 27.8571C1113.61 27.6501 1113.28 27.4941 1112.92 27.3981C1112.55 27.3022 1112.17 27.268 1111.8 27.2977C1111.42 27.3274 1111.05 27.4203 1110.72 27.5711C1110.38 27.722 1110.08 27.9277 1109.84 28.1767L1095.43 42.9267C1095 43.3665 1094.77 43.9183 1094.77 44.4877C1094.77 45.0571 1095 45.6089 1095.43 46.0487L1109.35 60.7987C1109.62 61.084 1109.97 61.3137 1110.35 61.4711C1110.74 61.6285 1111.17 61.7096 1111.6 61.7083C1112.14 61.7099 1112.68 61.5795 1113.14 61.3321C1113.6 61.0848 1113.97 60.7308 1114.21 60.3112C1114.44 59.8915 1114.54 59.4235 1114.47 58.9615C1114.41 58.4995 1114.19 58.0625 1113.85 57.7013L1101.37 44.5L1114.28 31.3233C1114.52 31.0749 1114.71 30.7881 1114.82 30.4793C1114.93 30.1706 1114.97 29.8459 1114.94 29.5239C1114.9 29.2019 1114.79 28.889 1114.62 28.6029C1114.44 28.3169 1114.2 28.0635 1113.91 27.8571Z" fill="#231F20"/>
<path d="M1151.78 42.9512L1138 28.2012C1137.77 27.9487 1137.47 27.7388 1137.14 27.5835C1136.81 27.4282 1136.44 27.3306 1136.06 27.2963C1135.68 27.262 1135.3 27.2918 1134.94 27.3838C1134.57 27.4758 1134.23 27.6283 1133.94 27.8325C1133.64 28.0354 1133.4 28.2861 1133.22 28.5704C1133.03 28.8547 1132.92 29.1669 1132.88 29.489C1132.84 29.8111 1132.87 30.1368 1132.98 30.4474C1133.09 30.758 1133.27 31.0473 1133.51 31.2987L1145.82 44.5L1132.9 57.7012C1132.66 57.9497 1132.48 58.2365 1132.36 58.5452C1132.25 58.854 1132.21 59.1787 1132.25 59.5007C1132.28 59.8227 1132.39 60.1356 1132.57 60.4216C1132.74 60.7077 1132.98 60.9611 1133.28 61.1675C1133.8 61.5252 1134.45 61.7164 1135.12 61.7083C1135.54 61.7089 1135.96 61.6299 1136.35 61.477C1136.73 61.324 1137.07 61.1008 1137.34 60.8233L1151.75 46.0733C1152.18 45.6363 1152.42 45.0861 1152.42 44.5167C1152.43 43.9473 1152.2 43.394 1151.78 42.9512Z" fill="#231F20"/>
</svg>
