<svg width="48" height="77" viewBox="0 0 48 77" fill="none" xmlns="http://www.w3.org/2000/svg">
<path d="M48.0004 0L14.0004 12.5L21.3158 12.9877L6.50011 30C4.20136 36.6664 4.71986 39.0007 6.50011 42.5C7.30565 45.2985 14.4308 47.0995 16.0001 46C17.5694 44.9005 21.4618 42.2875 21.5004 42C17.3278 43.1026 14.7496 44.2929 12.0004 42C11.1699 33.3179 14.8706 28.3853 29.5004 19.5L34.0004 27L48.0004 0Z" fill="#D9D9D9"/>
<path d="M33 30C23.9125 30.7981 20.7629 32.8394 17 38C23.7034 35.6162 26.6255 35.584 30.5 37.5C28.1805 49.5251 25.1826 52.8252 18.5 56L0 67L4.5 77L17 69C27.6813 63.3714 33.3326 59.3527 41 46C43.0827 36.9731 42.4212 32.8912 33 30Z" fill="#D9D9D9"/>
</svg>
