<svg width="118" height="118" viewBox="0 0 118 118" fill="none" xmlns="http://www.w3.org/2000/svg">
<circle cx="59" cy="59" r="59" fill="#C9CBF2"/>
<path d="M68.8497 36H45.9146C43.2014 36 41 38.1416 41 40.7812V82.2188C41 84.8584 43.2014 87 45.9146 87H68.8497C71.563 87 73.7643 84.8584 73.7643 82.2188V40.7812C73.7643 38.1416 71.563 36 68.8497 36ZM57.3822 83.8125C55.5699 83.8125 54.1057 82.3881 54.1057 80.625C54.1057 78.8619 55.5699 77.4375 57.3822 77.4375C59.1944 77.4375 60.6586 78.8619 60.6586 80.625C60.6586 82.3881 59.1944 83.8125 57.3822 83.8125ZM68.8497 73.0547C68.8497 73.7121 68.2968 74.25 67.621 74.25H47.1433C46.4675 74.25 45.9146 73.7121 45.9146 73.0547V41.9766C45.9146 41.3191 46.4675 40.7812 47.1433 40.7812H67.621C68.2968 40.7812 68.8497 41.3191 68.8497 41.9766V73.0547Z" fill="black"/>
</svg>
