<svg width="118" height="118" viewBox="0 0 118 118" fill="none" xmlns="http://www.w3.org/2000/svg">
<circle cx="59" cy="59" r="59" fill="#C9CBF2"/>
<path d="M50.3539 62.1672C46.9061 62.3687 43.7772 63.5625 42.0018 67.8156C41.7998 68.3008 41.3143 68.5953 40.748 68.5953C39.7932 68.5953 36.8413 66.4336 36 65.9117C36.0009 72.3453 39.2604 78 47.0006 78C53.5197 78 58.0004 74.5805 58.0004 68.6102C58.0004 68.3672 57.9446 68.1352 57.9171 67.8969L50.3539 62.1672ZM75.35 38C74.0472 38 72.8261 38.5242 71.8945 39.2852C54.3284 53.5508 52.5005 53.8859 52.5005 58.0852C52.5005 59.1555 52.7798 60.1758 53.2508 61.1086L58.7352 65.2633C59.3548 65.4039 59.9933 65.5 60.6593 65.5C65.9968 65.5 69.0905 61.9477 78.8055 45.4641C79.4397 44.343 80 43.132 80 41.8711C80 39.6125 77.7657 38 75.35 38Z" fill="black"/>
</svg>
