<svg width="26" height="24" viewBox="0 0 26 24" fill="none" xmlns="http://www.w3.org/2000/svg">
<path d="M9.152 23.448C10.4 23.796 11.661 24 13 24C16.4478 24 19.7544 22.7357 22.1924 20.4853C24.6304 18.2348 26 15.1826 26 12C26 10.4241 25.6637 8.86371 25.0104 7.4078C24.3571 5.95189 23.3995 4.62902 22.1924 3.51472C20.9852 2.40042 19.5521 1.5165 17.9749 0.913446C16.3977 0.310389 14.7072 0 13 0C11.2928 0 9.60235 0.310389 8.02512 0.913446C6.44788 1.5165 5.01477 2.40042 3.80761 3.51472C1.36964 5.76516 0 8.8174 0 12C0 17.1 3.471 21.48 8.372 23.208C8.255 22.272 8.138 20.724 8.372 19.656L9.867 13.728C9.867 13.728 9.49 13.032 9.49 11.928C9.49 10.272 10.608 9.036 11.882 9.036C13 9.036 13.52 9.792 13.52 10.764C13.52 11.796 12.779 13.272 12.402 14.688C12.181 15.864 13.078 16.896 14.378 16.896C16.692 16.896 18.486 14.616 18.486 11.4C18.486 8.52 16.25 6.552 13.039 6.552C9.373 6.552 7.215 9.072 7.215 11.724C7.215 12.756 7.579 13.8 8.177 14.484C8.294 14.556 8.294 14.652 8.255 14.832L7.878 16.14C7.878 16.344 7.735 16.416 7.514 16.272C5.85 15.6 4.888 13.416 4.888 11.652C4.888 7.86 7.8 4.416 13.416 4.416C17.888 4.416 21.372 7.38 21.372 11.316C21.372 15.444 18.603 18.756 14.638 18.756C13.377 18.756 12.142 18.132 11.7 17.4L10.829 20.244C10.53 21.276 9.711 22.656 9.152 23.484V23.448Z" fill="white"/>
</svg>
